<svg xmlns="http://www.w3.org/2000/svg" width="20.984" height="20.953" viewBox="0 0 20.984 20.953">
  <g id="Group_42" data-name="Group 42" transform="translate(0 0)">
    <path id="Path_32" data-name="Path 32" d="M10.494,20.953A10.476,10.476,0,1,1,15.732,1.4a.442.442,0,0,1,.155.621.427.427,0,0,1-.388.233.551.551,0,0,1-.233-.078A9.363,9.363,0,0,0,10.494.892a9.584,9.584,0,1,0,9.584,9.584c0-.427-.039-.854-.078-1.28a10.477,10.477,0,0,0-.543-2.173A13.731,13.731,0,0,0,18.836,5.7a.388.388,0,0,1-.039-.349.7.7,0,0,1,.194-.272.551.551,0,0,1,.233-.078.427.427,0,0,1,.388.233,10.244,10.244,0,0,1,.7,1.474,10.143,10.143,0,0,1,.621,2.367,8.435,8.435,0,0,1,.078,1.4A10.542,10.542,0,0,1,10.494,20.953Z" transform="translate(-0.029 0)" fill="#0084c1"/>
    <path id="Path_33" data-name="Path 33" d="M18.543,27.009a.442.442,0,0,1-.31-.116l-2.677-2.677a.388.388,0,0,1,0-.621.473.473,0,0,1,.621,0l2.212,2.212a.194.194,0,0,0,.31,0l4.889-4.889a.473.473,0,0,1,.621,0,.388.388,0,0,1,0,.621l-5.355,5.355A.442.442,0,0,1,18.543,27.009Z" transform="translate(-9.436 -12.73)" fill="#0084c1"/>
  </g>
</svg>
